<svg xmlns="http://www.w3.org/2000/svg" viewBox="0 0 477 140">
  <path d="M58 0 L0 78 L36 78 L28 140 L100 50 L60 50 L70 0 Z" fill="#FFD60A"/>
  <g transform="translate(126,0)">
  <g transform="translate(0.0,118) scale(0.14545,-0.14545)"><path d="M69 0V660H354Q416 660 465.5 649.5Q515 639 550.0 617.5Q585 596 603.5 562.5Q622 529 622 483Q622 444 605.5 415.0Q589 386 554.0 368.0Q519 350 461 344V327Q557 321 603.0 281.0Q649 241 649 173Q649 115 618.0 77.0Q587 39 527.0 19.5Q467 0 379 0ZM223 128H373Q434 128 463.0 145.5Q492 163 492 201Q492 243 457.0 264.0Q422 285 350 285H223ZM223 383H328Q399 383 432.0 402.5Q465 422 465 461Q465 499 434.5 516.5Q404 534 342 534H223Z" fill="#0A0A0A"/></g>
  <g transform="translate(96.3,118) scale(0.14545,-0.14545)"><path d="M360 -14Q288 -14 230.0 8.0Q172 30 130.5 73.0Q89 116 67.0 179.5Q45 243 45 327Q45 445 86.5 521.5Q128 598 201.0 636.0Q274 674 366 674Q437 674 495.0 652.0Q553 630 594.5 587.0Q636 544 658.5 479.5Q681 415 681 331Q681 244 657.5 179.5Q634 115 591.5 72.0Q549 29 490.0 7.5Q431 -14 360 -14ZM365 112Q414 112 447.5 136.5Q481 161 498.5 207.5Q516 254 516 321Q516 392 498.0 441.5Q480 491 445.5 516.5Q411 542 361 542Q313 542 279.5 517.5Q246 493 228.0 445.5Q210 398 210 329Q210 277 220.5 236.5Q231 196 250.0 168.5Q269 141 298.5 126.5Q328 112 365 112Z" fill="#0A0A0A"/></g>
  <g transform="translate(197.4,118) scale(0.14545,-0.14545)"><path d="M69 0V660H230V0ZM98 0V135H499V0Z" fill="#0A0A0A"/></g>
  <g transform="translate(267.1,118) scale(0.14545,-0.14545)"><path d="M208 0V660H370V0ZM16 526V660H564V526Z" fill="#0A0A0A"/></g>
  </g>
</svg>